<svg id="visual" viewBox="0 0 1920 1080" width="1920" height="1080" xmlns="http://www.w3.org/2000/svg" xmlns:xlink="http://www.w3.org/1999/xlink" version="1.1"><path d="M0 185L29.2 190.3C58.3 195.7 116.7 206.3 174.8 188.3C233 170.3 291 123.7 349.2 105.7C407.3 87.7 465.7 98.3 523.8 103.7C582 109 640 109 698.2 123.3C756.3 137.7 814.7 166.3 872.8 161C931 155.7 989 116.3 1047.2 114.7C1105.3 113 1163.7 149 1221.8 156.2C1280 163.3 1338 141.7 1396.2 129C1454.3 116.3 1512.7 112.7 1570.8 127C1629 141.3 1687 173.7 1745.2 193.5C1803.3 213.3 1861.7 220.7 1890.8 224.3L1920 228L1920 0L1890.8 0C1861.7 0 1803.3 0 1745.2 0C1687 0 1629 0 1570.8 0C1512.7 0 1454.3 0 1396.2 0C1338 0 1280 0 1221.8 0C1163.7 0 1105.3 0 1047.2 0C989 0 931 0 872.8 0C814.7 0 756.3 0 698.2 0C640 0 582 0 523.8 0C465.7 0 407.3 0 349.2 0C291 0 233 0 174.8 0C116.7 0 58.3 0 29.2 0L0 0Z" fill="#36b796"></path><path d="M0 390L29.2 436.8C58.3 483.7 116.7 577.3 174.8 559.3C233 541.3 291 411.7 349.2 382.8C407.3 354 465.7 426 523.8 463.8C582 501.7 640 505.3 698.2 498.2C756.3 491 814.7 473 872.8 453.2C931 433.3 989 411.7 1047.2 444C1105.3 476.3 1163.7 562.7 1221.8 555.5C1280 548.3 1338 447.7 1396.2 422.5C1454.3 397.3 1512.7 447.7 1570.8 476.3C1629 505 1687 512 1745.2 512C1803.3 512 1861.7 505 1890.8 501.5L1920 498L1920 226L1890.8 222.3C1861.7 218.7 1803.3 211.3 1745.2 191.5C1687 171.7 1629 139.3 1570.8 125C1512.7 110.7 1454.3 114.3 1396.2 127C1338 139.7 1280 161.3 1221.8 154.2C1163.7 147 1105.3 111 1047.2 112.7C989 114.3 931 153.7 872.8 159C814.7 164.3 756.3 135.7 698.2 121.3C640 107 582 107 523.8 101.7C465.7 96.3 407.3 85.7 349.2 103.7C291 121.7 233 168.3 174.8 186.3C116.7 204.3 58.3 193.7 29.2 188.3L0 183Z" fill="#21a584"></path><path d="M0 703L29.2 724.7C58.3 746.3 116.7 789.7 174.8 796.8C233 804 291 775 349.2 769.5C407.3 764 465.7 782 523.8 787.5C582 793 640 786 698.2 773.5C756.3 761 814.7 743 872.8 717.7C931 692.3 989 659.7 1047.2 686.7C1105.3 713.7 1163.7 800.3 1221.8 845.3C1280 890.3 1338 893.7 1396.2 859.3C1454.3 825 1512.7 753 1570.8 745.8C1629 738.7 1687 796.3 1745.2 801.8C1803.3 807.3 1861.7 760.7 1890.8 737.3L1920 714L1920 496L1890.8 499.5C1861.7 503 1803.3 510 1745.2 510C1687 510 1629 503 1570.8 474.3C1512.7 445.7 1454.3 395.3 1396.2 420.5C1338 445.7 1280 546.3 1221.8 553.5C1163.7 560.7 1105.3 474.3 1047.2 442C989 409.7 931 431.3 872.8 451.2C814.7 471 756.3 489 698.2 496.2C640 503.3 582 499.7 523.8 461.8C465.7 424 407.3 352 349.2 380.8C291 409.7 233 539.3 174.8 557.3C116.7 575.3 58.3 481.7 29.2 434.8L0 388Z" fill="#009473"></path><path d="M0 854L29.2 864.8C58.3 875.7 116.7 897.3 174.8 897.3C233 897.3 291 875.7 349.2 881C407.3 886.3 465.7 918.7 523.8 927.7C582 936.7 640 922.3 698.2 915.2C756.3 908 814.7 908 872.8 891.8C931 875.7 989 843.3 1047.2 850.5C1105.3 857.7 1163.7 904.3 1221.8 929.5C1280 954.7 1338 958.3 1396.2 931.3C1454.3 904.3 1512.7 846.7 1570.8 843.2C1629 839.7 1687 890.3 1745.2 895.8C1803.3 901.3 1861.7 861.7 1890.8 841.8L1920 822L1920 712L1890.8 735.3C1861.7 758.7 1803.3 805.3 1745.2 799.8C1687 794.3 1629 736.7 1570.8 743.8C1512.7 751 1454.3 823 1396.2 857.3C1338 891.7 1280 888.3 1221.8 843.3C1163.7 798.3 1105.3 711.7 1047.2 684.7C989 657.7 931 690.3 872.8 715.7C814.7 741 756.3 759 698.2 771.5C640 784 582 791 523.8 785.5C465.7 780 407.3 762 349.2 767.5C291 773 233 802 174.8 794.8C116.7 787.7 58.3 744.3 29.2 722.7L0 701Z" fill="#008064"></path><path d="M0 1081L29.2 1081C58.3 1081 116.7 1081 174.8 1081C233 1081 291 1081 349.2 1081C407.3 1081 465.7 1081 523.8 1081C582 1081 640 1081 698.2 1081C756.3 1081 814.7 1081 872.8 1081C931 1081 989 1081 1047.2 1081C1105.3 1081 1163.7 1081 1221.8 1081C1280 1081 1338 1081 1396.2 1081C1454.3 1081 1512.7 1081 1570.8 1081C1629 1081 1687 1081 1745.2 1081C1803.3 1081 1861.7 1081 1890.8 1081L1920 1081L1920 820L1890.8 839.8C1861.7 859.7 1803.3 899.3 1745.2 893.8C1687 888.3 1629 837.7 1570.8 841.2C1512.7 844.7 1454.3 902.3 1396.2 929.3C1338 956.3 1280 952.7 1221.8 927.5C1163.7 902.3 1105.3 855.7 1047.2 848.5C989 841.3 931 873.7 872.8 889.8C814.7 906 756.3 906 698.2 913.2C640 920.3 582 934.7 523.8 925.7C465.7 916.7 407.3 884.3 349.2 879C291 873.7 233 895.3 174.8 895.3C116.7 895.3 58.3 873.7 29.2 862.8L0 852Z" fill="#006c55"></path></svg>